HIERARCHY
ROOT pelvis
{
  OFFSET 0 100 0
  CHANNELS 6 Xposition Yposition Zposition Zrotation Xrotation Yrotation
  JOINT pelvis_right_femur
  {
    OFFSET -10.78128 -3.44521 -0.5502486
    CHANNELS 3 Zrotation Xrotation Yrotation
    JOINT right_femur_tibia
    {
      OFFSET -0.8047443 -44.0398 -0.1307829
      CHANNELS 3 Zrotation Xrotation Yrotation
      JOINT right_tibia_foot
      {
        OFFSET 3.006224 -47.83518 -5
        CHANNELS 3 Zrotation Xrotation Yrotation
        End Site
        {
          OFFSET 0 -5 15
        }
      }
    }
  }
  JOINT pelvis_left_femur
  {
    OFFSET 10.78128 -3.44521 -0.5502486
    CHANNELS 3 Zrotation Xrotation Yrotation
    JOINT left_femur_tibia
    {
      OFFSET 0.8047443 -44.0398 -0.1307829
      CHANNELS 3 Zrotation Xrotation Yrotation
      JOINT left_tibia_foot
      {
        OFFSET -4.370144 -48.10324 -4.275266
        CHANNELS 3 Zrotation Xrotation Yrotation
        End Site
        {
          OFFSET 0 -5 15
        }
      }
    }
  }
  JOINT pelvis_spine1
  {
    OFFSET 0 6.468898 -3.129235
    CHANNELS 3 Zrotation Xrotation Yrotation
    JOINT spine1
    {
      OFFSET 0 23.15396 4.99043
      CHANNELS 3 Zrotation Xrotation Yrotation
      JOINT spine2
      {
        OFFSET 0 20.79997 -5.064912
        CHANNELS 3 Zrotation Xrotation Yrotation
        JOINT neck
        {
          OFFSET 0 14.38658 9.616178
          CHANNELS 3 Zrotation Xrotation Yrotation
          End Site
          {
            OFFSET 0 20 0
          }
        }
      }
      JOINT right_manubrium
      {
        OFFSET -5.722621 16.35077 3.967754
        CHANNELS 3 Zrotation Xrotation Yrotation
        JOINT right_clavicle
        {
          OFFSET -13.16364 1.694482 -4.693211
          CHANNELS 3 Zrotation Xrotation Yrotation
          JOINT right_humerus
          {
            OFFSET -28.5034 -0.3100689 -2.792744
            CHANNELS 3 Zrotation Xrotation Yrotation
            JOINT right_radius
            {
              OFFSET -25.15693 0.02248979 -1.271978
              CHANNELS 3 Zrotation Xrotation Yrotation
              End Site
              {
                OFFSET -15 0 0
              }
            }
          }
        }
      }
      JOINT left_manubrium
      {
        OFFSET 5.722621 16.35077 3.967754
        CHANNELS 3 Zrotation Xrotation Yrotation
        JOINT left_clavicle
        {
          OFFSET 13.16364 1.694482 -4.693211
          CHANNELS 3 Zrotation Xrotation Yrotation
          JOINT left_humerus
          {
            OFFSET 29.39168 -1.063119 -2.237045
            CHANNELS 3 Zrotation Xrotation Yrotation
            JOINT left_radius
            {
              OFFSET 24.59957 -0.9528479 0.9047498
              CHANNELS 3 Zrotation Xrotation Yrotation
              End Site
              {
                OFFSET 15 -0 -0
              }
            }
          }
        }
      }
    }
  }
}
MOTION
Frames: 23
Frame Time: 0.0416666666667
24.44766 101.501 291.3763 2.479709 -8.220081 0.952565 -1.581585 15.35986 5.658657 -0 45.91399 -0 16.63778 -4.53352 -5.523208 -3.990248 -17.91958 -5.949358 -0 26.0271 -0 -8.609949 -10.59949 17.12742 -2.759638 -0.7304136 8.688638 -2.291095 11.00713 -2.783981 3.674774 19.98024 3.25255 0.6131698 -15.00774 7.731118 1.050464 -20.55198 9.179703 83.37549 17.59306 -8.393531 -0 0 24.54742 -23.3578 9.445776 11.70116 5.198642 -13.00325 -1.90316 -91.51192 21.98655 26.19379 0 0 -9.778103 -2.660723 3.693691 20.92059
25.66937 102.5441 298.2531 2.705058 -8.697447 2.071708 -1.768178 11.89378 4.990987 -0 54.17499 -0 16.61962 -3.785905 -7.204187 -5.07075 -12.73322 -6.782716 -0 25.67257 -0 -7.822615 -12.38241 16.40902 -2.964889 -0.4654629 7.770693 -2.174256 10.8931 -2.949692 3.726228 20.46015 3.223865 0.5253766 -14.54516 7.841711 1.780782 -19.50039 9.264481 84.20031 17.81847 -9.54832 -0 0 22.43076 -22.69319 9.54598 10.72074 4.889844 -13.63589 -2.149928 -90.46383 22.42492 23.79635 0 0 -10.76928 -2.385039 4.037051 20.3475
26.77199 104.1528 304.8686 2.570993 -9.845866 3.083776 -0.969257 4.832593 4.431355 -0 58.91819 -0 15.87748 -5.133187 -7.728522 -5.3753 -6.486359 -7.356491 -0 24.26542 -0 -7.322 -13.78858 15.74138 -2.892123 0.5870349 6.349483 -1.850524 10.99553 -3.411054 3.750444 21.24778 3.259042 0.4170207 -13.89542 8.031708 2.399456 -18.61589 9.421266 85.20777 18.11914 -10.58914 -0 0 20.68108 -21.91543 9.646192 9.794384 4.610484 -14.45842 -2.621458 -89.215 22.87381 20.65548 0 0 -12.15763 -1.951876 4.461901 19.60748
27.85843 105.5867 311.0877 2.258085 -10.37674 4.054322 0.1728666 -2.027514 4.150635 -0 59.55044 -0 14.61856 -6.230864 -8.021341 -5.188572 -0.6606909 -7.955229 -0 21.77616 -0 -7.10162 -14.85285 14.97123 -2.742927 1.110223 4.804798 -1.478348 10.56295 -4.100329 3.760347 21.73343 3.432015 0.2789526 -13.57024 8.402015 2.392294 -17.49279 9.543506 86.18747 18.37363 -11.80912 -0 0 19.30669 -21.13074 9.687054 8.932108 4.668478 -15.11365 -3.313684 -87.99168 23.2973 17.09571 0 0 -13.87505 -1.472282 4.961348 18.76716
28.87035 106.5937 316.763 2.118371 -10.51629 5.680414 1.237453 -8.678901 4.316816 -0 56.15107 -0 12.98653 -6.935387 -8.557314 -4.951505 4.548913 -8.52918 -0 18.96043 -0 -7.033825 -15.81533 14.11412 -2.624953 1.573405 3.218614 -1.059313 10.32109 -4.961669 3.873806 22.36861 3.478675 0.2200909 -13.07348 8.685626 2.099177 -16.09722 9.485376 87.29148 18.47874 -13.27623 -0 0 18.2093 -20.26035 9.565222 8.01157 4.921381 -16.12722 -4.039641 -86.54311 23.69525 13.07249 0 0 -16.05518 -0.9141522 5.551992 17.65499
29.8068 106.7744 322.3999 1.944856 -9.890305 7.092109 1.155598 -13.90445 4.217126 -0 48.17641 -0 11.1469 -7.845144 -9.266501 -4.541363 8.813274 -9.013461 -0 16.30906 -0 -6.969109 -17.01099 13.23062 -2.655211 1.783016 1.775269 -0.5955078 9.573705 -5.916085 4.117194 22.75953 3.355274 0.2525317 -12.72442 8.832798 1.49686 -15.15546 9.445741 87.69274 18.54228 -14.34948 -0 0 17.52993 -19.58244 9.358218 7.177953 5.48378 -17.03872 -4.7814 -84.97495 24.02792 9.055194 0 0 -18.52568 -0.255233 6.242664 16.3022
30.72602 106.1799 328.2721 2.146923 -9.143823 8.874461 0.7537352 -18.28721 4.251531 -0 38.32906 -0 9.288583 -8.627722 -10.32066 -4.313143 12.7099 -9.268253 -0 14.4336 -0 -6.887438 -18.47503 12.29296 -2.893432 1.673921 0.6961884 -0.2112643 8.957228 -6.593977 4.427419 23.00398 3.024026 0.3492619 -12.57591 8.751103 0.9762005 -13.522 9.360589 88.28669 18.47022 -15.91767 -0 0 16.48724 -18.78867 9.042317 6.058649 6.189386 -18.12159 -5.104984 -83.33743 24.16686 5.079365 0 0 -21.42272 0.6026759 7.074915 14.68341
31.5331 104.8353 334.2611 2.33194 -8.269356 9.772767 -0.2987721 -21.25421 3.448241 -0 27.86452 -0 7.510977 -10.14004 -11.14115 -4.234658 16.05204 -9.28583 -0 13.58809 -0 -6.842498 -20.02109 11.48697 -3.100001 1.541779 0.351264 0.05058874 8.23302 -6.559909 4.751253 22.98513 2.532657 0.4858075 -12.70309 8.453382 0.6784022 -12.01044 9.763668 88.52294 18.43924 -17.19202 -0 0 15.40234 -18.04009 8.70575 4.881968 6.863384 -19.23769 -5.151994 -81.90431 24.15196 1.479869 0 0 -24.35508 1.583205 7.955139 12.96592
32.11786 103.5463 340.2562 2.493425 -7.452201 10.13148 -0.2539902 -23.90852 2.132482 -0 19.52131 -0 5.850159 -11.91014 -11.79369 -4.141644 18.77999 -9.045541 -0 13.98698 -0 -6.9645 -21.14185 10.94267 -3.010111 2.363496 0.6964347 0.226378 7.949472 -5.756874 4.908137 22.80793 1.970734 0.5611944 -13.085 7.915776 0.8856349 -10.20169 10.83232 88.89255 18.42494 -18.36437 -0 0 14.23131 -17.36802 8.367295 3.720371 7.26462 -20.62768 -5.074441 -80.69824 24.02704 -1.708286 0 0 -26.9568 2.582192 8.795361 11.26993
32.65835 102.1739 346.8554 2.067319 -7.621885 10.43823 0.3358291 -25.40786 1.762879 -0 16.02561 -0 4.461527 -13.14131 -12.29551 -3.427506 21.48583 -9.215876 -0 16.62773 -0 -7.245044 -21.43497 10.80143 -2.686792 2.145458 0.5945602 0.5180912 7.404304 -5.426256 5.128009 22.8147 1.611025 0.6732567 -13.53301 7.683371 1.154746 -8.930256 11.33067 89.11651 18.5915 -19.3513 -0 0 12.80926 -16.55289 8.096111 2.479346 7.409181 -21.16813 -4.870408 -80.11464 23.97334 -3.423708 0 0 -28.27906 3.396033 9.526196 9.922485
33.19687 101.1842 353.5822 1.728081 -7.14342 10.72424 2.063731 -23.58749 1.86042 -0 15.36415 -0 3.446715 -13.56912 -12.6603 -2.781539 22.66094 -9.342003 -0 20.96019 -0 -7.743009 -20.45651 10.9822 -2.226435 1.507469 0.361093 0.6230029 6.931004 -5.125055 5.265595 22.93277 1.191011 0.7727812 -13.96201 7.278977 1.477497 -8.159178 11.6691 89.38588 18.79347 -19.77399 -0 0 11.83404 -15.74656 7.842255 1.432198 7.401291 -21.34095 -4.450315 -80.1175 24.02943 -3.963817 0 0 -28.54491 3.983974 10.16102 8.956104
33.7751 100.8635 361.2357 1.262317 -7.289034 11.44413 3.609395 -20.94883 2.794056 -0 17.16898 -0 2.905456 -13.10238 -12.39594 -1.888761 22.97677 -9.545494 -0 27.90093 -0 -8.284306 -18.17236 11.81083 -1.393407 0.7364884 -0.01910809 0.6920696 6.939717 -5.166843 5.079792 23.45134 1.129848 0.7173188 -14.06687 7.039498 1.591274 -7.810207 11.47485 89.50548 19.064 -19.92532 -0 0 11.09863 -14.91969 7.617197 0.5161123 7.230016 -20.73363 -4.049553 -80.94978 24.29599 -3.07173 0 0 -27.61363 4.250716 10.70595 8.424283
34.27425 101.484 369.1092 1.027806 -8.484779 11.09674 4.365124 -17.02499 3.508499 -0 19.50398 -0 2.240265 -13.39704 -11.66792 -0.6339629 20.65704 -9.751892 -0 36.81611 -0 -8.202963 -16.33623 13.66665 -0.7723636 0.6777141 0.2246214 0.8226228 7.368647 -5.003146 4.820553 24.11959 1.272668 0.6627892 -14.18435 6.959068 1.902879 -7.935456 11.22047 89.38195 19.3988 -19.62141 -0 0 10.66128 -14.14539 7.400071 -0.2300929 6.735811 -19.77782 -3.752513 -82.26542 24.6365 -1.088047 0 0 -25.30571 4.162747 11.14888 8.404549
34.71383 102.2692 376.4016 0.8606484 -10.29464 10.24514 5.354323 -12.44638 3.806557 -0 19.83735 -0 1.583269 -14.41496 -10.35971 -1.000688 15.66602 -9.259744 -0 45.64132 -0 -8.15227 -14.27603 15.53299 -0.2928106 1.436046 0.8302769 0.9406181 7.927509 -4.823776 4.563806 24.95758 1.504733 0.6429406 -14.1614 6.975011 2.092814 -8.988102 10.95218 88.63556 19.84762 -18.43845 -0 0 10.91904 -13.58791 7.17486 -0.7007308 6.083795 -18.93674 -3.677399 -83.76395 24.95483 1.33313 0 0 -22.0596 3.746066 11.49047 8.799435
35.19906 103.7105 383.0344 0.7617339 -11.03243 9.002678 6.051256 -6.752575 3.535351 -0 19.96222 -0 0.8449659 -15.06371 -9.236215 -1.62416 11.2852 -8.737595 -0 54.42301 -0 -8.143899 -12.2728 17.42251 -0.2703783 1.304453 1.166665 0.9728264 8.185049 -5.22231 4.217041 26.08562 1.872766 0.6189958 -14.00491 7.058644 2.338743 -11.13505 10.00481 87.37492 20.36992 -16.58019 -0 0 11.64651 -13.21986 6.963894 -0.9790909 5.323323 -17.84141 -3.498763 -85.45569 25.13624 4.544782 0 0 -17.89349 3.088137 11.69113 9.54562
35.61601 105.2857 388.9977 1.476137 -12.10487 8.319637 5.615376 -0.8122645 2.888345 -0 18.1165 -0 0.2736912 -15.633 -8.010197 -2.142652 3.94285 -8.454702 -0 58.40767 -0 -7.430549 -11.40761 19.03685 -0.6279093 2.142108 2.275717 0.7616788 8.574215 -4.731419 4.011415 26.95188 2.035203 0.7058582 -13.94217 6.963867 2.462807 -12.72218 9.731021 86.18034 20.71866 -14.56687 -0 0 13.2089 -13.10257 6.745885 -0.9267454 4.743768 -17.31524 -3.43362 -87.16461 25.12909 7.252006 0 0 -13.99079 2.342867 11.78577 10.33543
36.12633 106.6488 394.9333 2.064472 -12.12363 7.436982 4.837904 4.732408 2.076433 -0 14.95321 -0 -0.22948 -16.0706 -6.564995 -2.58083 -3.333178 -8.108133 -0 57.46523 -0 -6.684142 -10.7459 20.14765 -1.152057 2.609508 3.586449 0.4135527 8.51778 -3.701249 4.066911 27.02273 2.009636 0.9432592 -14.35385 6.837233 2.29673 -13.76128 9.913936 85.37781 20.96129 -12.80345 -0 0 14.614 -13.12688 6.529859 -0.7260402 4.628437 -16.7698 -3.28932 -88.95197 24.81305 10.13306 0 0 -10.43268 1.666012 11.78262 11.01499
36.55451 107.1563 400.3957 2.063996 -11.42081 5.783663 4.307157 9.320591 0.9246029 -0 11.41457 -0 -0.8432588 -16.66586 -4.92453 -2.417325 -9.865968 -7.864195 -0 51.29996 -0 -6.214936 -10.20568 20.80615 -1.333552 2.76637 4.597022 0.006513475 8.11192 -2.621975 3.874298 26.77567 2.237879 1.076672 -14.9319 6.786354 1.795239 -15.07027 10.20959 84.44838 21.17731 -10.64906 -0 0 16.70225 -13.50254 6.382872 -0.09654072 4.926381 -16.07164 -3.142144 -90.60843 24.24111 13.09873 0 0 -7.232452 1.056431 11.72302 11.56925
37.03406 106.9952 406.036 1.750008 -10.66616 4.285037 4.096109 13.39976 -0.1893869 -0 8.602689 -0 -1.628795 -17.49927 -3.34745 -1.125575 -15.39041 -7.521207 -0 41.4526 -0 -6.134557 -9.50991 21.31783 -1.176557 2.611796 5.086581 -0.6384973 7.741103 -1.76217 3.574663 26.50806 2.643475 1.185917 -15.64135 6.847325 0.9178729 -16.3333 10.33541 84.01117 21.30637 -8.448826 -0 0 19.25928 -14.09317 6.272378 0.8990007 5.401559 -15.22835 -2.910358 -91.96628 23.44675 16.12042 0 0 -4.311135 0.611607 11.62421 11.97562
37.61097 105.9881 411.7568 1.046802 -9.497415 3.279714 4.305105 16.69853 -1.543463 -0 6.699092 -0 -2.62505 -18.42731 -2.042211 0.702135 -19.05986 -6.422539 -0 30.96697 -0 -6.158176 -8.75482 21.98721 -0.7175528 2.263154 5.093922 -1.122872 7.303042 -1.27982 3.259133 25.97867 3.143682 1.316459 -16.56304 6.992741 -0.1231045 -17.5482 10.21522 83.59108 21.30479 -6.452128 -0 0 22.04066 -14.90526 6.154871 2.093598 5.975748 -14.40763 -2.672258 -93.04631 22.49178 18.90727 0 0 -1.768767 0.3318574 11.48626 12.26914
38.3416 104.7055 417.1845 0.601119 -8.589689 2.553212 4.462605 19.94131 -3.022624 -0 6.154104 -0 -3.783396 -19.00237 -0.9970318 2.248132 -22.36176 -5.377271 -0 21.70471 -0 -5.991825 -8.520653 21.9381 -0.3123966 2.045642 4.955718 -1.552893 6.955148 -1.030437 2.852368 25.699 3.717036 1.44614 -17.41423 7.123139 -0.8831377 -18.80088 10.0831 83.13452 21.15497 -4.722914 -0 0 24.5946 -15.83714 5.959396 3.317554 6.239919 -13.93329 -2.720606 -93.76357 21.50426 21.16243 -0 0 0.5006095 0.2207501 11.30869 12.48705
39.13246 103.5378 422.9747 -0.1731397 -8.120787 2.121214 4.571915 22.27148 -4.059706 -0 7.52082 -0 -5.005367 -18.3749 -0.1943684 2.048868 -24.43307 -4.865235 -0 14.89093 -0 -5.635185 -8.746983 21.28382 0.2585131 2.083504 4.778633 -1.695188 7.058026 -0.9346518 2.467433 25.57361 4.345202 1.647981 -18.22483 7.308747 -1.31615 -19.78511 9.844283 82.75568 20.87557 -3.72937 -0 0 26.37471 -16.76295 5.702581 4.314666 6.260011 -13.73033 -2.848952 -94.23266 20.54256 22.94553 -0 0 2.411508 0.241092 11.11861 12.64232
40.14418 102.6615 429.6998 -0.6177438 -7.677634 1.399491 3.920743 24.0249 -4.250341 -0 11.06913 -0 -6.279256 -15.68205 0.3617211 1.2447 -23.65895 -4.943118 -0 13.46911 -0 -5.24561 -8.834213 20.96214 0.269856 0.8971524 4.81418 -1.776963 7.468736 -0.8329964 2.429292 25.82502 4.788259 2.041611 -18.66224 7.570339 -1.737628 -20.22075 9.255729 83.0681 20.59125 -3.764306 -0 0 26.98958 -17.53141 5.4492 4.978336 6.307116 -13.4371 -2.772733 -94.60859 19.58484 24.43581 -0 0 3.771684 0.4238117 10.94553 12.65341
